# xmcd
#
# Track frame offsets:
# 150
# 17519
# 39929
# 57237
# 80095
# 103294
# 125545
# 139257
# 162888
# 177815
# 197701
# 215804
# 238241
#
# Disc length: 3425 seconds
#
#
# Revision: 0
# Processed by: cddbd v1.5.1PL0 Copyright (c) Steve Scherf et al.
# Submitted via: FreeRIP 2.942 
#
DISCID=ba0d5f0d
DTITLE=SIBEL CAN - SIBELCAN SARKILARI
DYEAR=2000
DGENRE=Pop
TTITLE0=PADISAH
TTITLE1=KANASIN
TTITLE2=BENCE TALIH
TTITLE3=DAHA YOLUN BASINDAYIM
TTITLE4=HAVAR
TTITLE5=ZALIM FIRARIM
TTITLE6=DEDIKODU
TTITLE7=GULUM ODUR
TTITLE8=SARKILAR DA SENDEN YANA
TTITLE9=EMRET OLEYIM
TTITLE10=ALCAK
TTITLE11=BERIVAN
TTITLE12=OLURUM
EXTD=
EXTT0=
EXTT1=
EXTT2=
EXTT3=
EXTT4=
EXTT5=
EXTT6=
EXTT7=
EXTT8=
EXTT9=
EXTT10=
EXTT11=
EXTT12=
PLAYORDER=
